<!DOCTYPE svg PUBLIC "-//W3C//DTD SVG 1.1//EN" "http://www.w3.org/Graphics/SVG/1.1/DTD/svg11.dtd">
<!-- Uploaded to: SVG Repo, www.svgrepo.com, Transformed by: SVG Repo Mixer Tools -->
<svg width="64px" height="64px" viewBox="-14.72 -14.72 93.44 93.44" xmlns="http://www.w3.org/2000/svg" xmlns:xlink="http://www.w3.org/1999/xlink" aria-hidden="true" role="img" class="iconify iconify--medical-icon" preserveAspectRatio="xMidYMid meet" fill="#000000">
<g id="SVGRepo_bgCarrier" stroke-width="0">
<rect x="-14.72" y="-14.72" width="93.44" height="93.44" rx="23.36" fill="#000000" strokewidth="0"/>
</g>
<g id="SVGRepo_tracerCarrier" stroke-linecap="round" stroke-linejoin="round"/>
<g id="SVGRepo_iconCarrier">
<path d="M56.943 22.128v16.525h-8.856L35.99 26.34s-1.943-3.78 1.838-4.212h19.115z" fill="#ffffff"/>
<path d="M44.218 6.919a5.832 5.832 0 1 1-11.664 0a5.832 5.832 0 0 1 11.664 0z" fill="#ffffff"/>
<path d="M39.063 31.678l-6.421-6.524V14.833c.013-.152.021-.306.021-.462a5.833 5.833 0 0 0-7.79-5.495l-.006-.033l-.15.091a5.845 5.845 0 0 0-1.806 1.117l-11.775 7.28c-.073.044-.146.087-.217.134l-.201.124l.005.009a5.824 5.824 0 0 0-2.469 4.757l-.021-.013v35.776a4.463 4.463 0 1 0 8.856-.146V27.525l-.143-.083l.065-.037l.078.12l9.72-6.343v6.775l8.289 8.021l.018-.019a2.916 2.916 0 1 0 3.949-4.281z" fill="#ffffff"/>
<path d="M52.338 17.091a.972.972 0 1 1-1.944 0a.972.972 0 0 1 1.944 0z" fill="#ffffff"/>
<path d="M50.07 18.171a.972.972 0 1 1-1.944 0a.972.972 0 0 1 1.944 0z" fill="#ffffff"/>
<path d="M44.575 13.083a.728.728 0 1 1 1.457-.005a.728.728 0 0 1-1.457.005z" fill="#ffffff"/>
<path d="M43.726 13.824a.73.73 0 1 1-1.459 0a.73.73 0 0 1 1.459 0z" fill="#ffffff"/>
<path d="M41.794 15.551a.729.729 0 1 1-1.457.001a.729.729 0 0 1 1.457-.001z" fill="#ffffff"/>
<path d="M40.81 17.969a.73.73 0 1 1-1.46 0a.73.73 0 0 1 1.46 0z" fill="#ffffff"/>
<path d="M40.81 20.358a.73.73 0 1 1-1.46 0a.73.73 0 0 1 1.46 0z" fill="#ffffff"/>
<path d="M43.09 20.358a.73.73 0 1 1-1.46 0a.73.73 0 0 1 1.46 0z" fill="#ffffff"/>
<path d="M43.09 18.144a.73.73 0 1 1-1.46 0a.73.73 0 0 1 1.46 0z" fill="#ffffff"/>
<path d="M44.008 16.091a.729.729 0 1 1-1.457.001a.729.729 0 0 1 1.457-.001z" fill="#ffffff"/>
<path d="M46.006 15.175a.73.73 0 1 1-1.459 0a.73.73 0 0 1 1.459 0z" fill="#ffffff"/>
<path d="M48.443 13.371a.802.802 0 1 1-1.604 0a.802.802 0 0 1 1.604 0z" fill="#ffffff"/>
<path d="M48.348 15.897a.802.802 0 1 1-1.604 0a.802.802 0 0 1 1.604 0z" fill="#ffffff"/>
<path d="M50.642 14.682a.802.802 0 1 1-1.604 0a.802.802 0 0 1 1.604 0z" fill="#ffffff"/>
</g>
</svg>