<!DOCTYPE svg PUBLIC "-//W3C//DTD SVG 1.1//EN" "http://www.w3.org/Graphics/SVG/1.1/DTD/svg11.dtd">
<!-- Uploaded to: SVG Repo, www.svgrepo.com, Transformed by: SVG Repo Mixer Tools -->
<svg fill="#ffffff" width="64px" height="64px" viewBox="-6.4 -6.4 76.80 76.80" id="Layer_1" version="1.1" xml:space="preserve" xmlns="http://www.w3.org/2000/svg" xmlns:xlink="http://www.w3.org/1999/xlink">
<g id="SVGRepo_bgCarrier" stroke-width="0">
<rect x="-6.4" y="-6.4" width="76.80" height="76.80" rx="19.968" fill="#000000" strokewidth="0"/>
</g>
<g id="SVGRepo_tracerCarrier" stroke-linecap="round" stroke-linejoin="round"/>
<g id="SVGRepo_iconCarrier"> <g> <path d="M53.5,46.2c-4.8,0-9.7,0-14.5,0c-0.7,0-1.5,0-2.2,0v-5.1h3.6c3.7,0,6.8-2.6,7.5-6.1c0.5,0,0.9,0,1.4,0c2.6,0,2.6-4,0-4 c-0.4,0-0.8,0-1.2,0v0H15.9v0c-0.4,0-0.8,0-1.2,0c-2.6,0-2.6,4,0,4c0.5,0,0.9,0,1.4,0c0.7,3.5,3.8,6.1,7.5,6.1h3.6v5.1 c-3.8,0-7.6,0-11.3,0c-1.8,0-3.6,0-5.4,0c-2.6,0-2.6,4,0,4c0.7,0,1.4,0,2.1,0c0.7,4.3,4.4,7.6,9,7.6h20.8c4.5,0,8.2-3.3,9-7.6 c0.7,0,1.4,0,2.1,0C56.1,50.2,56.1,46.2,53.5,46.2z M20.3,35c7.8,0,15.6,0,23.4,0c-0.6,1.2-1.9,2.1-3.3,2.1H23.6 C22.2,37.1,20.9,36.2,20.3,35z M31.2,41.1h1.6v5.1c-0.5,0-1.1,0-1.6,0V41.1z M42.4,53.8H21.6c-2.3,0-4.2-1.5-4.9-3.6h30.6 C46.6,52.3,44.7,53.8,42.4,53.8z"/> <path d="M15.9,12.7c1.3-1.2,3-2,4.8-2.2c1.7-0.2,3.3,0.1,4.7,0.9c1.1,0.6,2.1,1.4,2.8,2.4c-3.6-1.6-7.7-0.9-10.7,1.7 c-0.8,0.7-0.7,2.1,0,2.8c0.8,0.8,2,0.7,2.8,0c0,0,0.2-0.2,0.3-0.2c0.1-0.1,0.3-0.2,0.4-0.3c0.3-0.2,0.5-0.3,0.8-0.4 c0.1,0,0.3-0.1,0.3-0.1c0.2-0.1,0.4-0.1,0.6-0.2c0.2,0,0.3-0.1,0.5-0.1c0,0,0.1,0,0.1,0c0,0,0.1,0,0.1,0c0.4,0,0.8,0,1.2,0 c0,0,0.2,0,0.3,0c0.1,0,0.2,0,0.2,0c0.3,0.1,0.7,0.2,1,0.3c0,0,0.1,0,0.1,0c0.2,0.1,0.3,0.1,0.5,0.2c0.3,0.1,0.5,0.3,0.8,0.5 c0,0,0,0,0.1,0c0,0,0,0,0,0c0.1,0.1,0.3,0.2,0.4,0.3c0.2,0.2,0.4,0.4,0.6,0.7c0,0,0,0,0.1,0.1c0,0,0,0,0,0.1 c0.1,0.1,0.2,0.2,0.2,0.4c0,0.1,0.1,0.1,0.1,0.2c-2.4-0.8-5-0.2-6.9,1.5c-0.8,0.7-0.8,2.1,0,2.8c0.8,0.8,2,0.7,2.8,0 c0,0,0.1-0.1,0.1-0.1c0.1-0.1,0.2-0.1,0.2-0.1c0,0,0.4-0.2,0.5-0.3c0,0,0,0,0.1,0c0.1,0,0.2-0.1,0.4-0.1c0.1,0,0.2,0,0.3-0.1 c0.2,0,0.5,0,0.7,0c0,0,0,0,0,0c0,0,0.1,0,0.1,0c0.2,0,0.4,0.1,0.6,0.2c0.1,0,0.1,0.1,0.2,0.1c0.2,0.1,0.3,0.2,0.5,0.3 c0.1,0,0.1,0.1,0.2,0.1c0.1,0.1,0.3,0.3,0.4,0.4c0,0.1,0.1,0.1,0.1,0.2c0.1,0.2,0.2,0.3,0.3,0.5c0,0.1,0.1,0.2,0.1,0.2 c0,0.1,0,0.2,0.1,0.3c0-0.1,0,0.1,0,0.2c0,0,0,0.1,0,0.1c0,0,0-0.1,0-0.1c0,0.1,0,0.2,0,0.3c0,1,0.9,2,2,2c1.1,0,2-0.9,2-2 c0-0.2,0-0.4,0-0.6c0-0.1,0-0.1,0-0.2c0,0,0,0,0,0c0-0.1,0-0.2,0.1-0.3c0-0.1,0.1-0.2,0.1-0.3c0-0.1,0.1-0.4,0-0.1 c-0.1,0.3,0,0,0.1-0.1c0.1-0.1,0.1-0.2,0.2-0.3c0,0,0-0.1,0.1-0.1c0,0,0,0,0,0c0,0,0.1-0.1,0.1-0.1c0.1-0.1,0.3-0.2,0.4-0.4 c0.1,0,0.1-0.1,0.2-0.1c0.1,0,0.2-0.1,0.2-0.1c0,0,0,0,0,0c0,0,0.1,0,0.1,0c0.1,0,0.2-0.1,0.3-0.1c0.1,0,0.1,0,0.2,0 c0.1,0,0.4,0,0.5,0c0.1,0,0.2,0,0.3,0c0,0,0,0,0,0c0,0,0.1,0,0.1,0c0.1,0,0.2,0,0.3,0.1c0.1,0,0.2,0,0.2,0.1c0,0,0,0-0.1,0 c0,0,0.1,0,0.1,0.1c0,0,0.1,0,0.1,0.1c0.1,0,0.2,0.1,0.2,0.1c0.1,0,0.1,0.1,0.2,0.1c0.1,0.1,0.3,0.3,0.4,0.4c0.7,0.8,2.1,0.8,2.8,0 c0.8-0.8,0.8-2,0-2.8c-1.6-1.7-4.2-2.5-6.5-1.8c0,0-0.1,0-0.1,0c0,0,0-0.1,0-0.1c0.1-0.2,0.2-0.3,0.3-0.5c0,0,0.2-0.2,0.2-0.3 c0.1-0.1,0.2-0.2,0.2-0.3c0.2-0.2,0.4-0.4,0.6-0.6c0,0,0.2-0.2,0.3-0.2c0.1-0.1,0.2-0.2,0.4-0.2c0.1-0.1,0.2-0.1,0.4-0.2 c0,0,0.2-0.1,0.2-0.1c0.1,0,0.2-0.1,0.2-0.1c0.2-0.1,0.3-0.1,0.5-0.1c0.1,0,0.3-0.1,0.4-0.1c0.1,0,0.1,0,0.1,0c0.2,0,0.5,0,0.7,0 c0.2,0,0.3,0,0.5,0c0,0,0.2,0,0.3,0c0.1,0,0.2,0,0.2,0c0.1,0,0.3,0.1,0.4,0.1c0.1,0,0.3,0.1,0.4,0.1c0,0,0.2,0.1,0.3,0.1 c0.2,0.1,0.4,0.2,0.6,0.3c0.1,0.1,0.3,0.2,0.4,0.3c0,0,0,0,0,0c0.3,0.2,0.5,0.5,0.7,0.7c0.7,0.8,2.1,0.8,2.8,0c0.8-0.8,0.8-2,0-2.8 c-2.3-2.5-5.9-3.5-9.1-2.6c-0.4,0.1-0.8,0.3-1.1,0.4c0.2-0.3,0.4-0.5,0.6-0.7c1.1-1.1,2.3-1.9,3.7-2.3c1.3-0.3,2.6-0.3,3.9,0 c1.4,0.4,2.6,1.2,3.7,2.3c1.8,1.9,4.6-0.9,2.8-2.8c-2.9-3.2-7.5-4.5-11.7-3.3c-2.9,0.8-5.2,2.7-6.7,5.1c-1.1-1.6-2.6-3-4.5-3.9 c-4.7-2.4-10.3-1.5-14.2,2c-0.8,0.7-0.7,2.1,0,2.8C13.9,13.5,15.1,13.4,15.9,12.7z M35.8,23.2C35.9,23.2,35.9,23.2,35.8,23.2 C36.2,23.2,36,23.2,35.8,23.2z M35.8,23.2C35.8,23.2,35.7,23.2,35.8,23.2C35.7,23.2,35.8,23.2,35.8,23.2z M42.1,17.7 C42.1,17.8,42.1,17.8,42.1,17.7L42.1,17.7z"/> </g> </g>
</svg>