<!DOCTYPE svg PUBLIC "-//W3C//DTD SVG 1.1//EN" "http://www.w3.org/Graphics/SVG/1.1/DTD/svg11.dtd">
<!-- Uploaded to: SVG Repo, www.svgrepo.com, Transformed by: SVG Repo Mixer Tools -->
<svg fill="#ffffff" height="64px" width="64px" version="1.1" xmlns="http://www.w3.org/2000/svg" viewBox="-102.4 -102.4 716.80 716.80" xmlns:xlink="http://www.w3.org/1999/xlink" enable-background="new 0 0 512 512">
<g id="SVGRepo_bgCarrier" stroke-width="0">
<rect x="-102.4" y="-102.4" width="716.80" height="716.80" rx="179.2" fill="#000000" strokewidth="0"/>
</g>
<g id="SVGRepo_tracerCarrier" stroke-linecap="round" stroke-linejoin="round"/>
<g id="SVGRepo_iconCarrier"> <g> <g> <path d="m225.5,41.5c-11.3,0-20.4,9.1-20.4,20.4v43.8l-37.1-37c-8-8-20.9-8-28.9,0-8,8-8,20.9 0,28.9l65.9,65.9v72.1h-72l-65.9-65.9c-8-8-20.9-8-28.9,0-8,8-8,20.9 0,28.9l37.1,37.1h-43.9c-11.3,0-20.4,9.1-20.4,20.4 0,11.3 9.1,20.4 20.4,20.4h43.9l-37.1,37.1c-8,8-8,20.9 0,28.9 8,8 20.9,8 28.9,0l65.9-65.9h72v72l-65.9,65.9c-8,8-8,20.9 0,28.9 8,8 20.9,8 28.9,0l37.1-37.1v43.9c0,11.3 9.1,20.4 20.4,20.4 11.3,0 20.4-9.1 20.4-20.4v-388.3c0-11.2-9.1-20.4-20.4-20.4z"/> <path d="m454.4,262.2v-149.7c0-34.2-27.6-62.1-61.4-62.1-33.9,0-61.4,27.9-61.4,62.1v149.7c-29,20.3-46.6,53.7-46.6,90 0,60.3 48.5,109.4 108,109.4 59.6,0 108-49.1 108-109.4 0-36.3-17.6-69.7-46.6-90zm-61.4,158.5c-37,0-67.2-30.8-67.2-68.6 0-25.5 13.7-48.7 35.9-60.6 6.6-3.6 10.7-10.5 10.7-18v-161c0-11.7 9.2-21.3 20.6-21.3 11.4,0 20.6,9.5 20.6,21.3v161c0,7.5 4.1,14.4 10.7,18 22.1,11.9 35.9,35.2 35.9,60.6 0,37.9-30.2,68.6-67.2,68.6z"/> </g> </g> </g>
</svg>